<svg xmlns="http://www.w3.org/2000/svg" fill-rule="evenodd" stroke-linejoin="round" stroke-miterlimit="2" clip-rule="evenodd" viewBox="0 0 6000 6000"><path fill="#eeeef8" d="M1512.79 771.396c-27.51 15.141-97.28 34.769-141.13 72.4-47.49 40.767-65.51 124.176-35.99 183.764 33.52 67.65 141.42 63.55 201.23 39.1 30.15-12.33 59.89-34.52 93.84-33.68 38.94.96 72.01 31.32 112.31 22.58 12.06-2.62 24.92-6.66 32.05-17.52 12.29-18.74-2.3-34-19.02-41.859-27.73-13.021-72.52-15.065-64.85-59.052 2.55-14.598 12.27-27.013 26.62-31.57 33.92-10.775 63.42-2.166 91.43-31.509 10.86-11.385 20.35-25.678 25.37-40.659 10.19-30.398-.01-72.216-36.33-77.386-34.35-4.89-61.8 17.332-89.74 33.284-9.72 5.547-26.94 16.277-36.91 5.623-7.46-7.976-6.3-23.841-5.95-33.797 1.07-31.419 13.67-87.21-29.11-97.09-39.18-9.049-71.13 26.522-87.4 57.408-9.18 17.408-18.24 39.958-36.42 49.963Z" transform="translate(-9830.547 -4088.074) scale(8.12138)"/><circle cx="1393.06" cy="735.013" r="32.987" fill="#eeeef8" transform="translate(-9534.709 -4027.43) scale(8.12138)"/><circle cx="1393.06" cy="735.013" r="32.987" fill="#eeeef8" transform="translate(-3731.79 -900.714) scale(3.58115)"/><circle cx="1393.06" cy="735.013" r="32.987" fill="#eeeef8" transform="translate(461.668 599.435) scale(1.16548)"/><g transform="matrix(-8.13428 -2.07696 -1.90246 7.45087 15990.116 546.697)"><path fill="#23cec4" d="M1343.58 895.923c11.55-10.616 9.25-31.432 24.51-80.774 4.12-13.325-24.21 4.538-31.11-5.217-3.2-4.508.63-11.113 2.85-15.154 4.67-8.484 18.38-22.472 15.17-33.061-1.45-4.821-6.77-6.026-11.14-6.727-6.98-1.12-22.13-1.01-26.2-8.219-1.85-3.298.1-7.504 1.51-10.579 2.98-6.533 10.17-14.67 9.07-22.297-.59-4.094-5.09-5.789-8.51-6.935-6.89-2.305-15.43-3.184-19.97-9.48-5.78-8.005-1.27-33.879-15.54-30.292-19.26 4.841-13.94 32.348-9.96 45.687 1.75 5.891 3.95 11.597.62 17.362-7.37 12.772-21.92 19.588-28.86 32.708-2.06 3.884-5.15 13.51.55 15.997 7.03 3.065 17.96-2.749 25.29-3.235 3.02-.201 7.52-.619 8.8 2.986 1.63 4.586-2.78 10.141-5.23 13.557-5.83 8.141-20.96 21.317-19.02 32.571 1.88 10.931 21.19 4.154 27.56 3.018 2.5-.446 7.28-1.675 9 1.028 2.09 3.293-.49 9.178-1.66 12.329-2.75 7.38-13.13 23.863-11.29 31.295 1.81 7.32 13.49 5.21 18.77 6.357 7.3 1.582 33.25 27.692 44.79 17.075Z"/><clipPath id="a"><path d="M1343.58 895.923c11.55-10.616 9.25-31.432 24.51-80.774 4.12-13.325-24.21 4.538-31.11-5.217-3.2-4.508.63-11.113 2.85-15.154 4.67-8.484 18.38-22.472 15.17-33.061-1.45-4.821-6.77-6.026-11.14-6.727-6.98-1.12-22.13-1.01-26.2-8.219-1.85-3.298.1-7.504 1.51-10.579 2.98-6.533 10.17-14.67 9.07-22.297-.59-4.094-5.09-5.789-8.51-6.935-6.89-2.305-15.43-3.184-19.97-9.48-5.78-8.005-1.27-33.879-15.54-30.292-19.26 4.841-13.94 32.348-9.96 45.687 1.75 5.891 3.95 11.597.62 17.362-7.37 12.772-21.92 19.588-28.86 32.708-2.06 3.884-5.15 13.51.55 15.997 7.03 3.065 17.96-2.749 25.29-3.235 3.02-.201 7.52-.619 8.8 2.986 1.63 4.586-2.78 10.141-5.23 13.557-5.83 8.141-20.96 21.317-19.02 32.571 1.88 10.931 21.19 4.154 27.56 3.018 2.5-.446 7.28-1.675 9 1.028 2.09 3.293-.49 9.178-1.66 12.329-2.75 7.38-13.13 23.863-11.29 31.295 1.81 7.32 13.49 5.21 18.77 6.357 7.3 1.582 33.25 27.692 44.79 17.075Z"/></clipPath><g clip-path="url(#a)"><path fill="#20b7af" d="M1277.49 619.725c.51-.179-.62.878-.91 1.335-.56.881-1.1 1.765-1.57 2.694-1.39 2.744-2.3 5.743-3.09 8.709-2.38 8.951-1.03 18.085 1.71 26.785 2.84 8.993 8.27 16.794 11.22 25.695 5.02 15.154 2.25 34.74-10.75 45.166-7.67 6.148-18.17 6.859-26.07 12.544-7.23 5.207-9.05 11.331-11.94 19.252-.66 1.791-1.95 5.049-4.43 3.805-5.86-2.941-7.22-13.721-7.12-19.266.29-17.765 10.12-33.958 14.77-50.79 5.03-18.229 18.63-65.054 38.18-75.929Z" transform="matrix(.6934 .07174 -.07578 .87291 441.337 24.644)"/><path fill="#20b7af" d="M1256.64 769.588c.44-2.317 4.89-4.936 6.52-6.297 1.33-1.114 2.67-2.209 4.04-3.271 5.09-3.943 17.66-12.797 22.47-3.563 2.18 4.184.45 9.462-1.49 13.393-3.83 7.758-10.26 14.018-13.59 22.048-1.55 3.751-2.83 8.264-.83 12.102 5.76 11.055 18.01 2.555 26.7 3.257 6.03.486 5.87 6.378 2.51 9.932-11.9 12.589-39.41 12.165-44.94-6.323-3.97-13.239-9.77-31.633-1.39-41.278ZM1295.69 844.367c-1.12.688-.6 4.457-.49 5.495.56 5.179 2.84 12.253 8.19 14.195 8.72 3.162 18.48-1.798 27.42-.503 9.84 1.426 15.46 8.78 22.6 14.738 3.03 2.528 12.92 6.849 10.9 12.075-.93 2.394-3.6 3.449-5.89 4.061-5.5 1.47-11.33 1.116-16.92.468-13.47-1.564-26.37-5.809-38.31-12.212-7.43-3.991-25.51-17.53-7.5-38.317Z" transform="matrix(.79958 .08273 -.07578 .87291 311.329 11.193)"/></g></g><path fill="#fff" d="M1352.93 830.31c.03.104.09.199.16.283 1.84 3.147 3.66 6.302 5.48 9.458 5.19 9.012 9.73 18.355 14.02 27.822-2.95-.769-5.38-2.84-8.04-4.259-6.39-3.404-12.35-6.53-19.55-7.918-2.89-.558-5.83-1.1-8.79-1.004-.15.005-2.22.068-2.64.214-.61.215-.72.694-.73.949a.993.993 0 0 0 1.44.937c.31-.016 1.89-.098 1.99-.101 2.81-.091 5.61.439 8.35.969 7 1.349 12.78 4.412 18.99 7.719 3.24 1.727 6.21 4.253 9.99 4.718 9.31 20.766 17.58 42.045 29.05 61.649-3.22-.355-5.13-1.991-6.99-3.978-1.47-1.56-2.89-3.327-4.78-4.957-3.49-3.019-7.43-5.391-11.63-7.268-4.39-1.958-8.77-3.797-13.53-4.614-1.67-.286-3.34-.494-5.03-.554-.32-.012-.72.072-1.12.204-.19.061-.46.144-.65.204a.997.997 0 0 0-1.61.94c.05.352.21.596.39.774.25.239.61.383 1.06.362.28-.013.64-.11 1.02-.24.3-.1.6-.254.84-.246 1.6.058 3.18.256 4.76.527 4.59.789 8.82 2.579 13.05 4.469 4.03 1.797 7.8 4.065 11.14 6.955 2.31 1.995 3.91 4.207 5.76 5.961 2.02 1.917 4.31 3.327 7.89 3.513.2.01.4-.041.56-.139l.99 1.639c15.01 24.509 37.18 42.834 49.07 69.422.22.5.82.73 1.32.5.5-.22.73-.82.5-1.32-11.92-26.664-34.13-45.063-49.18-69.646-5.37-8.766-10.03-17.901-14.37-27.207.02-.105.03-.217.02-.33-.69-6.487 1.84-11.798 4.16-17.726 1.84-4.691 3.36-9.431 4.63-14.308 1.04-3.969 1.8-7.998 2.44-12.047.22-1.405.44-2.811.61-4.223l.26-2.152c0-.023.01-.047.01-.071a.996.996 0 0 0-.74-1.2c-.12-.028-1.03-.099-1.23.826-.08.362-.27 2.222-.29 2.358-.16 1.388-.38 2.77-.59 4.15-.63 3.985-1.39 7.95-2.4 11.855-1.25 4.8-2.75 9.465-4.56 14.082-1.92 4.898-3.91 9.407-4.33 14.423-9.7-21.299-18.08-43.306-29.8-63.632-1.8-3.125-3.6-6.249-5.42-9.366.54-9.195 3.99-16.501 6.17-25.386.62-2.509 1.17-5.021 1.49-7.585.07-.51.28-1.47.28-2.241 0-.493-.08-.93-.24-1.247a1 1 0 0 0-1.34-.445c-.5.247-.7.849-.45 1.342.07.143.04.364.02.598-.04.639-.2 1.342-.25 1.743-.31 2.488-.85 4.925-1.45 7.358-1.98 8.074-4.97 14.867-5.97 22.901-5.51-9.388-11.18-18.69-17.29-27.718-.66-.973-4.79-8.274-7.33-11.026-.55-.604-1.07-1.011-1.46-1.192-.35-.154-.66-.188-.92-.15a1 1 0 0 0 .11 1.989c.14.131 1.09.993 1.75 1.849 2.45 3.203 5.63 8.813 6.19 9.65 6.64 9.816 12.77 19.958 18.74 30.184Zm6.34 81.061.01.031c0-.01 0-.021-.01-.031Zm44.44-54.508a1 1 0 0 1-.66.075c.21.05.43.039.66-.075Z" transform="matrix(-6.74272 0 0 6.74272 13156.762 -2220.188)"/><g transform="matrix(-5.2929 -4.18152 -3.8302 4.8482 14050.518 5739.038)"><path fill="#68e5de" d="M1343.58 895.923c11.55-10.616 9.25-31.432 24.51-80.774 4.12-13.325-24.21 4.538-31.11-5.217-3.2-4.508.63-11.113 2.85-15.154 4.67-8.484 18.38-22.472 15.17-33.061-1.45-4.821-6.77-6.026-11.14-6.727-6.98-1.12-22.13-1.01-26.2-8.219-1.85-3.298.1-7.504 1.51-10.579 2.98-6.533 10.17-14.67 9.07-22.297-.59-4.094-5.09-5.789-8.51-6.935-6.89-2.305-15.43-3.184-19.97-9.48-5.78-8.005-1.27-33.879-15.54-30.292-19.26 4.841-13.94 32.348-9.96 45.687 1.75 5.891 3.95 11.597.62 17.362-7.37 12.772-21.92 19.588-28.86 32.708-2.06 3.884-5.15 13.51.55 15.997 7.03 3.065 17.96-2.749 25.29-3.235 3.02-.201 7.52-.619 8.8 2.986 1.63 4.586-2.78 10.141-5.23 13.557-5.83 8.141-20.96 21.317-19.02 32.571 1.88 10.931 21.19 4.154 27.56 3.018 2.5-.446 7.28-1.675 9 1.028 2.09 3.293-.49 9.178-1.66 12.329-2.75 7.38-13.13 23.863-11.29 31.295 1.81 7.32 13.49 5.21 18.77 6.357 7.3 1.582 33.25 27.692 44.79 17.075Z"/><clipPath id="b"><path d="M1343.58 895.923c11.55-10.616 9.25-31.432 24.51-80.774 4.12-13.325-24.21 4.538-31.11-5.217-3.2-4.508.63-11.113 2.85-15.154 4.67-8.484 18.38-22.472 15.17-33.061-1.45-4.821-6.77-6.026-11.14-6.727-6.98-1.12-22.13-1.01-26.2-8.219-1.85-3.298.1-7.504 1.51-10.579 2.98-6.533 10.17-14.67 9.07-22.297-.59-4.094-5.09-5.789-8.51-6.935-6.89-2.305-15.43-3.184-19.97-9.48-5.78-8.005-1.27-33.879-15.54-30.292-19.26 4.841-13.94 32.348-9.96 45.687 1.75 5.891 3.95 11.597.62 17.362-7.37 12.772-21.92 19.588-28.86 32.708-2.06 3.884-5.15 13.51.55 15.997 7.03 3.065 17.96-2.749 25.29-3.235 3.02-.201 7.52-.619 8.8 2.986 1.63 4.586-2.78 10.141-5.23 13.557-5.83 8.141-20.96 21.317-19.02 32.571 1.88 10.931 21.19 4.154 27.56 3.018 2.5-.446 7.28-1.675 9 1.028 2.09 3.293-.49 9.178-1.66 12.329-2.75 7.38-13.13 23.863-11.29 31.295 1.81 7.32 13.49 5.21 18.77 6.357 7.3 1.582 33.25 27.692 44.79 17.075Z"/></clipPath><g clip-path="url(#b)"><path fill="#20b7af" d="M1277.49 619.725c.51-.179-.62.878-.91 1.335-.56.881-1.1 1.765-1.57 2.694-1.39 2.744-2.3 5.743-3.09 8.709-2.38 8.951-1.03 18.085 1.71 26.785 2.84 8.993 8.27 16.794 11.22 25.695 5.02 15.154 2.25 34.74-10.75 45.166-7.67 6.148-18.17 6.859-26.07 12.544-7.23 5.207-9.05 11.331-11.94 19.252-.66 1.791-1.95 5.049-4.43 3.805-5.86-2.941-7.22-13.721-7.12-19.266.29-17.765 10.12-33.958 14.77-50.79 5.03-18.229 18.63-65.054 38.18-75.929Z" transform="matrix(.6934 .07174 -.07578 .87291 441.337 24.644)"/><path fill="#20b7af" d="M1256.64 769.588c.44-2.317 4.89-4.936 6.52-6.297 1.33-1.114 2.67-2.209 4.04-3.271 5.09-3.943 17.66-12.797 22.47-3.563 2.18 4.184.45 9.462-1.49 13.393-3.83 7.758-10.26 14.018-13.59 22.048-1.55 3.751-2.83 8.264-.83 12.102 5.76 11.055 18.01 2.555 26.7 3.257 6.03.486 5.87 6.378 2.51 9.932-11.9 12.589-39.41 12.165-44.94-6.323-3.97-13.239-9.77-31.633-1.39-41.278ZM1295.69 844.367c-1.12.688-.6 4.457-.49 5.495.56 5.179 2.84 12.253 8.19 14.195 8.72 3.162 18.48-1.798 27.42-.503 9.84 1.426 15.46 8.78 22.6 14.738 3.03 2.528 12.92 6.849 10.9 12.075-.93 2.394-3.6 3.449-5.89 4.061-5.5 1.47-11.33 1.116-16.92.468-13.47-1.564-26.37-5.809-38.31-12.212-7.43-3.991-25.51-17.53-7.5-38.317Z" transform="matrix(.79958 .08273 -.07578 .87291 311.329 11.193)"/></g></g><path fill="#fff" d="M1352.93 830.31c.03.104.09.199.16.283 1.84 3.147 3.66 6.302 5.48 9.458 5.19 9.012 9.73 18.355 14.02 27.822-2.95-.769-5.38-2.84-8.04-4.259-6.39-3.404-12.35-6.53-19.55-7.918-2.89-.558-5.83-1.1-8.79-1.004-.15.005-2.22.068-2.64.214-.61.215-.72.694-.73.949a.993.993 0 0 0 1.44.937c.31-.016 1.89-.098 1.99-.101 2.81-.091 5.61.439 8.35.969 7 1.349 12.78 4.412 18.99 7.719 3.24 1.727 6.21 4.253 9.99 4.718 9.31 20.766 17.58 42.045 29.05 61.649-3.22-.355-5.13-1.991-6.99-3.978-1.47-1.56-2.89-3.327-4.78-4.957-3.49-3.019-7.43-5.391-11.63-7.268-4.39-1.958-8.77-3.797-13.53-4.614-1.67-.286-3.34-.494-5.03-.554-.32-.012-.72.072-1.12.204-.19.061-.46.144-.65.204a.997.997 0 0 0-1.61.94c.05.352.21.596.39.774.25.239.61.383 1.06.362.28-.013.64-.11 1.02-.24.3-.1.6-.254.84-.246 1.6.058 3.18.256 4.76.527 4.59.789 8.82 2.579 13.05 4.469 4.03 1.797 7.8 4.065 11.14 6.955 2.31 1.995 3.91 4.207 5.76 5.961 2.02 1.917 4.31 3.327 7.89 3.513.2.01.4-.041.56-.139l.99 1.639c15.01 24.509 37.18 42.834 49.07 69.422.22.5.82.73 1.32.5.5-.22.73-.82.5-1.32-11.92-26.664-34.13-45.063-49.18-69.646-5.37-8.766-10.03-17.901-14.37-27.207.02-.105.03-.217.02-.33-.69-6.487 1.84-11.798 4.16-17.726 1.84-4.691 3.36-9.431 4.63-14.308 1.04-3.969 1.8-7.998 2.44-12.047.22-1.405.44-2.811.61-4.223l.26-2.152c0-.023.01-.047.01-.071a.996.996 0 0 0-.74-1.2c-.12-.028-1.03-.099-1.23.826-.08.362-.27 2.222-.29 2.358-.16 1.388-.38 2.77-.59 4.15-.63 3.985-1.39 7.95-2.4 11.855-1.25 4.8-2.75 9.465-4.56 14.082-1.92 4.898-3.91 9.407-4.33 14.423-9.7-21.299-18.08-43.306-29.8-63.632-1.8-3.125-3.6-6.249-5.42-9.366.54-9.195 3.99-16.501 6.17-25.386.62-2.509 1.17-5.021 1.49-7.585.07-.51.28-1.47.28-2.241 0-.493-.08-.93-.24-1.247a1 1 0 0 0-1.34-.445c-.5.247-.7.849-.45 1.342.07.143.04.364.02.598-.04.639-.2 1.342-.25 1.743-.31 2.488-.85 4.925-1.45 7.358-1.98 8.074-4.97 14.867-5.97 22.901-5.51-9.388-11.18-18.69-17.29-27.718-.66-.973-4.79-8.274-7.33-11.026-.55-.604-1.07-1.011-1.46-1.192-.35-.154-.66-.188-.92-.15a1 1 0 0 0 .11 1.989c.14.131 1.09.993 1.75 1.849 2.45 3.203 5.63 8.813 6.19 9.65 6.64 9.816 12.77 19.958 18.74 30.184Zm6.34 81.061.01.031c0-.01 0-.021-.01-.031Zm44.44-54.508a1 1 0 0 1-.66.075c.21.05.43.039.66-.075Z" transform="scale(-5.4176 5.4176) rotate(-23.986 20.667 5850.145)"/><g transform="matrix(-10.63893 0 0 5.13219 20619.939 -730.37)"><path fill="#d68c04" d="M1823.21 984.084c-15.6-8.622-97.47-4.172-97.47-4.172v45.628s78.5 5.5 95.14.65c9.33-2.71 10.62-37.524 2.33-42.106Z"/><clipPath id="c"><path d="M1823.21 984.084c-15.6-8.622-97.47-4.172-97.47-4.172v45.628s78.5 5.5 95.14.65c9.33-2.71 10.62-37.524 2.33-42.106Z"/></clipPath><g clip-path="url(#c)"><path fill="#fbab17" d="M1823.21 984.084c-15.6-8.622-97.47-4.172-97.47-4.172v45.628s78.5 5.5 95.14.65c9.33-2.71 10.62-37.524 2.33-42.106Z" transform="translate(-3.54 -10.13)"/></g></g><g transform="matrix(-10.63893 0 0 5.13219 20619.939 -924.463)"><path fill="#d68c04" d="M1823.21 984.084c-15.6-8.622-97.47-4.172-97.47-4.172v45.628s78.5 5.5 95.14.65c9.33-2.71 10.62-37.524 2.33-42.106Z"/><clipPath id="d"><path d="M1823.21 984.084c-15.6-8.622-97.47-4.172-97.47-4.172v45.628s78.5 5.5 95.14.65c9.33-2.71 10.62-37.524 2.33-42.106Z"/></clipPath><g clip-path="url(#d)"><path fill="#fbab17" d="M1823.21 984.084c-15.6-8.622-97.47-4.172-97.47-4.172v45.628s78.5 5.5 95.14.65c9.33-2.71 10.62-37.524 2.33-42.106Z" transform="translate(-3.54 -10.13)"/></g></g><g transform="matrix(-10.63893 0 0 5.13219 20619.939 -1118.564)"><path fill="#d68c04" d="M1823.21 984.084c-15.6-8.622-97.47-4.172-97.47-4.172v45.628s78.5 5.5 95.14.65c9.33-2.71 10.62-37.524 2.33-42.106Z"/><clipPath id="e"><path d="M1823.21 984.084c-15.6-8.622-97.47-4.172-97.47-4.172v45.628s78.5 5.5 95.14.65c9.33-2.71 10.62-37.524 2.33-42.106Z"/></clipPath><g clip-path="url(#e)"><path fill="#fbab17" d="M1823.21 984.084c-15.6-8.622-97.47-4.172-97.47-4.172v45.628s78.5 5.5 95.14.65c9.33-2.71 10.62-37.524 2.33-42.106Z" transform="translate(-3.54 -10.13)"/></g></g><g transform="matrix(-10.63893 0 0 5.13219 20619.939 -1312.658)"><path fill="#d68c04" d="M1823.21 984.084c-15.6-8.622-97.47-4.172-97.47-4.172v45.628s78.5 5.5 95.14.65c9.33-2.71 10.62-37.524 2.33-42.106Z"/><clipPath id="f"><path d="M1823.21 984.084c-15.6-8.622-97.47-4.172-97.47-4.172v45.628s78.5 5.5 95.14.65c9.33-2.71 10.62-37.524 2.33-42.106Z"/></clipPath><g clip-path="url(#f)"><path fill="#fbab17" d="M1823.21 984.084c-15.6-8.622-97.47-4.172-97.47-4.172v45.628s78.5 5.5 95.14.65c9.33-2.71 10.62-37.524 2.33-42.106Z" transform="translate(-3.54 -10.13)"/></g></g><ellipse cx="1769.03" cy="914.126" fill="#d68c04" rx="51.493" ry="12.816" transform="matrix(-10.27315 0 0 3.1244 19923.282 878.966)"/><path fill="#20b7af" d="M1538.78 1038.32c.67.62-38.65 14.13-38.95 13.26-.64-1.88-1.51-3.67-2.43-5.43-2.67-5.13-5.75-10.07-9.11-14.78-9.78-13.69-22.02-25.08-36.91-33.072-16.37-8.79-35.92-11.305-54.5-12.732-19-1.459-21.37-9.174-12.9-25.338 9.07-17.309 46.06-48.825 61.27-61.405 14.92-12.345 25.91 2.036 49.9 6.034-.01.162 3.95 4.327 5.47 6.169 7.19 8.746 13.4 18.466 18.59 28.517 14.66 28.368 23.96 66.367 19.57 98.777Z" transform="rotate(-3.04 -45320.12 150241.02) scale(6.33975)"/><path fill="#68e5de" d="M1538.78 1038.32c.67.62-38.65 14.13-38.95 13.26-.64-1.88-1.51-3.67-2.43-5.43-2.67-5.13-5.75-10.07-9.11-14.78-9.78-13.69-22.02-25.08-36.91-33.072-16.37-8.79-35.92-11.305-54.5-12.732-19-1.459-21.37-9.174-12.9-25.338 9.07-17.309 46.06-48.825 61.27-61.405 14.92-12.345 25.91 2.036 49.9 6.034-.01.162 3.95 4.327 5.47 6.169 7.19 8.746 13.4 18.466 18.59 28.517 14.66 28.368 23.96 66.367 19.57 98.777Z" transform="rotate(14.825 16081.906 -24290.148) scale(6.33975)"/><path fill="#fff" d="M1410.78 971.661c-.04.07-.13.221-.19.304-.16.206-.34.4-.53.588-.64.648-1.35 1.238-1.88 1.789-.45.478-1.41 1.516-1.82 2.447-.48 1.119-.46 2.218-.04 3.156.41.922 1.2 1.662 2.36 2.015.83.25 2.03.218 2.58.217 2.42-.004 4.85-.398 7.27-.528 8.59-.466 17.26 1.504 25.21 4.726 24.43 9.907 42.37 28.555 58.58 48.645a3.001 3.001 0 0 0 4.67-3.77c-16.85-20.88-35.6-40.138-61-50.435-8.76-3.551-18.31-5.67-27.79-5.158-1.03.056-2.07.165-3.1.269.13-.157.26-.317.38-.481.96-1.328 1.47-2.818 1.27-4.447-.37-2.867-2.33-4.731-4.79-6.188-.91-.539-1.89-1.023-2.7-1.599-.42-.29-.88-.537-.82-1.103.2-1.895 1.22-3.729 2.39-5.472 1.42-2.1 3.12-4.051 4.47-5.756 7.78-9.808 16.97-18.487 26.23-26.867 1.82-1.648 3.95-3.903 6.25-5.875 1.92-1.642 3.94-3.132 6.04-3.567 1.4-.29 2.59.196 3.73.815 1.12.603 2.2 1.355 3.3 2.046 2.44 1.534 5.01 2.737 8 2.611 3.16-.133 6.18-2.251 8.07-4.646.15-.187.46-.65.72-1.052 1.61.557 3.25 1.567 4.86 2.642 2.38 1.598 4.68 3.384 6.65 4.606 14.24 8.825 25.42 21.214 38.59 31.337a3.006 3.006 0 0 0 4.21-.55c1-1.313.76-3.198-.56-4.207-13.33-10.245-24.66-22.749-39.08-31.681-4.16-2.574-9.74-7.395-14.71-8.363-1.2-.233-2.39.087-3.44.988-.79.686-1.51 2.009-1.94 2.559-.88 1.113-2.16 2.31-3.62 2.372-1.21.051-2.26-.392-3.27-.938-1.46-.783-2.83-1.795-4.25-2.626-2.58-1.503-5.29-2.448-8.47-1.789-2.45.507-4.89 1.864-7.19 3.633-2.94 2.26-5.66 5.194-7.92 7.235-9.5 8.602-18.92 17.523-26.9 27.589-3.1 3.911-7.57 9.085-8.13 14.319-.35 3.311 1.35 5.394 3.89 7.021.93.598 1.99 1.129 2.96 1.734.62.395 1.32.717 1.46 1.435Z" transform="rotate(14.825 16081.906 -24290.148) scale(6.33975)"/><path fill="#fff" fill-rule="nonzero" d="M1446.39 926.518v-17.747c-8.87-1.118-16.09-3.106-21.64-5.965-5.56-2.859-10.35-7.477-14.4-13.852-4.04-6.376-6.39-14.165-7.04-23.367l17.84-3.352c1.38 9.531 3.81 16.531 7.3 21 4.99 6.31 10.97 9.827 17.94 10.55v-56.494c-7.3-1.381-14.76-4.207-22.38-8.479-5.65-3.155-10.01-7.526-13.06-13.113-3.06-5.587-4.59-11.93-4.59-19.029 0-12.62 4.47-22.84 13.41-30.662 5.98-5.258 14.85-8.479 26.62-9.662v-8.479h10.45v8.479c10.32.986 18.5 4.009 24.55 9.07 7.76 6.442 12.42 15.282 14 26.522l-18.34 2.761c-1.05-6.968-3.23-12.308-6.55-16.022-3.32-3.714-7.88-6.162-13.66-7.345v51.17c8.94 2.235 14.86 3.976 17.75 5.225 5.52 2.432 10.02 5.39 13.51 8.874 3.48 3.483 6.16 7.624 8.03 12.422 1.87 4.799 2.81 9.991 2.81 15.578 0 12.291-3.91 22.545-11.73 30.761-7.82 8.216-17.95 12.62-30.37 13.212v17.944h-10.45Zm0-155.383c-6.9 1.051-12.34 3.812-16.32 8.282-3.97 4.469-5.96 9.76-5.96 15.873 0 6.047 1.69 11.108 5.08 15.183 3.38 4.076 9.12 7.329 17.2 9.761v-49.099Zm10.45 122.65c6.9-.855 12.6-3.845 17.11-8.972 4.5-5.127 6.75-11.47 6.75-19.029 0-6.441-1.59-11.617-4.78-15.528-3.19-3.911-9.55-7.411-19.08-10.5v54.029Z" transform="matrix(1.66605 2.14662 -1.81224 1.40653 943.829 -940.667)"/><path fill="#6b59e2" d="M1371.13 738.524c-.34.368 26.01 7.417 42.94 21.424 17.84 14.754 18.85 42.452 18.85 42.452s10.36-.038 17.06.143c4.96.134 9.96.012 14.91-.378 7.3-.576 14.22-1.749 20.4-5.991 26.18-17.97 16.83-53.131-7.55-67.738-26.29-15.749-97.03-6.644-106.61 10.088Z" transform="matrix(8.00128 1.3915 -2.392 13.7542 -7504.683 -10112.454)"/><g transform="translate(-13085.785 -5535) scale(9.84457)"><path fill="#988ceb" d="M1500.68 760.887c10-5.311 21.15-7.106 31.06.098 24.67 17.923 16.09 58.671 9.48 83.265-14.12 52.573-56.96 139.511-3.58 184.98 24.62 12.04 90.39 10.31 137.69 3.17 12.76-1.92 24.17-4.24 33.07-6.78 1.03-.29-26.98-51.434-13.02-131.666 7.28-41.815 17.63-113.508 11.14-126.844-8.49-17.432-32.03-24.26-48.82-30.579-49.35-18.579-132.75-13.376-157.02 24.356Z"/><clipPath id="g"><path d="M1500.68 760.887c10-5.311 21.15-7.106 31.06.098 24.67 17.923 16.09 58.671 9.48 83.265-14.12 52.573-56.96 139.511-3.58 184.98 24.62 12.04 90.39 10.31 137.69 3.17 12.76-1.92 24.17-4.24 33.07-6.78 1.03-.29-26.98-51.434-13.02-131.666 7.28-41.815 17.63-113.508 11.14-126.844-8.49-17.432-32.03-24.26-48.82-30.579-49.35-18.579-132.75-13.376-157.02 24.356Z"/></clipPath><g clip-path="url(#g)"><path fill="#c1baf3" d="M1356.94 764.631c1.11.033 4.76-4.257 5.48-4.971 5.18-5.1 10.41-10.091 16.09-14.644 16.63-13.341 38.75-29.638 60.27-33.216 39.18-6.516 65.64 35.966 56.98 71.009-5.47 22.147-23.52 40.503-33.56 60.751-5.75 11.622-10.54 23.858-13.7 36.455-3.19 12.774-8.64 42.375 4.96 51.884 7.16 5.009 14.56-5.204 17.93-10.224 11.01-16.42 17.12-35.808 30.8-50.516 4.17-4.484 15.13-15.21 21.99-9.551 6.31 5.196-.51 19.965-2.84 25.448-10.22 23.975-22.51 46.075-25.91 72.41-2.52 19.551-.11 40.544 10.55 57.534 3.95 6.29 12.69 16.5 21.1 11.02 10.47-6.84 8.22-27.58 7.89-37.923-.82-26.131-1.11-54.168 14.91-76.518 1.6-2.233 3.56-4.283 5.64-6.074 18.42-15.84 12.98 23.412 20.58 23.894 3.72.236 5.75-5.49 6.79-8.203 2.72-7.062.62-23.978 8.26-28.078 8.26-4.43 7.86 21.27 16.52 13.137 7.77-7.301 1.52-23.327-.14-31.869-5.11-26.223-9.09-54.123-7.59-80.843.76-13.457 2.35-28.243 9.34-40.084 9.24-15.669 31.32-23.509 22.31-45.137-1.39-3.335-3.24-6.502-5.3-9.464-16.35-23.49-46.74-34.492-73.93-38.183-62.01-8.418-180.78 40.481-195.42 101.956Z" transform="translate(364.247 150.319) scale(.82496)"/></g></g><path fill="#fff" d="M1589.33 870.863c11.5-.301 26.8-1.836 38.3-2.406a3.83 3.83 0 0 0 3.63-4.011 3.83 3.83 0 0 0-4.01-3.632c-11.44.568-26.67 2.1-38.12 2.399a3.836 3.836 0 0 0-3.73 3.925 3.836 3.836 0 0 0 3.93 3.725Z" transform="matrix(10.962 .83806 -.6248 8.17272 -14359.386 -5716.701)"/><path fill="#fff" d="M1594.82 893.095c2.49.27 5.73-.773 8.21-1.047 5.91-.65 11.83-1.184 17.76-1.631 19.02-1.434 38.1-2.446 57.15-3.507a3.826 3.826 0 0 0-.42-7.64c-19.1 1.064-38.23 2.079-57.31 3.516-6.02.454-12.02.996-18.01 1.656-2 .219-4.56 1.261-6.55 1.045a3.825 3.825 0 1 0-.83 7.608Z" transform="matrix(10.962 .83806 -.6248 8.17272 -14422.296 -5666.423)"/><circle cx="1460.41" cy="757.988" r="35.358" fill="#fff" transform="translate(-216.224 1412.198) scale(1.73384)"/><path fill="#fff" d="M1589.33 870.863c11.5-.301 26.8-1.836 38.3-2.406a3.83 3.83 0 0 0 3.63-4.011 3.83 3.83 0 0 0-4.01-3.632c-11.44.568-26.67 2.1-38.12 2.399a3.836 3.836 0 0 0-3.73 3.925 3.836 3.836 0 0 0 3.93 3.725Z" transform="matrix(10.962 .83806 -.6248 8.17272 -14397.059 -5210.213)"/><path fill="#fff" d="M1594.82 893.095c2.49.27 5.73-.773 8.21-1.047 5.91-.65 11.83-1.184 17.76-1.631 19.02-1.434 38.1-2.446 57.15-3.507a3.826 3.826 0 0 0-.42-7.64c-19.1 1.064-38.23 2.079-57.31 3.516-6.02.454-12.02.996-18.01 1.656-2 .219-4.56 1.261-6.55 1.045a3.825 3.825 0 1 0-.83 7.608Z" transform="matrix(10.962 .83806 -.6248 8.17272 -14459.968 -5159.934)"/><circle cx="1460.41" cy="757.988" r="35.358" fill="#fff" transform="translate(-253.826 1918.68) scale(1.73384)"/><path fill="#fff" d="M1589.33 870.863c11.5-.301 26.8-1.836 38.3-2.406a3.83 3.83 0 0 0 3.63-4.011 3.83 3.83 0 0 0-4.01-3.632c-11.44.568-26.67 2.1-38.12 2.399a3.836 3.836 0 0 0-3.73 3.925 3.836 3.836 0 0 0 3.93 3.725Z" transform="matrix(10.962 .83806 -.6248 8.17272 -14434.732 -4703.726)"/><path fill="#fff" d="M1594.82 893.095c2.49.27 5.73-.773 8.21-1.047 5.91-.65 11.83-1.184 17.76-1.631 19.02-1.434 38.1-2.446 57.15-3.507a3.826 3.826 0 0 0-.42-7.64c-19.1 1.064-38.23 2.079-57.31 3.516-6.02.454-12.02.996-18.01 1.656-2 .219-4.56 1.261-6.55 1.045a3.825 3.825 0 1 0-.83 7.608Z" transform="matrix(10.962 .83806 -.6248 8.17272 -14497.64 -4653.447)"/><circle cx="1460.41" cy="757.988" r="35.358" fill="#fff" transform="translate(-291.498 2425.168) scale(1.73384)"/><path fill="#fff" fill-rule="nonzero" d="M1479.46 992.422h-9.63c-.29 0-.43-.099-.43-.297v-4.413c-3.72-.766-6.78-2.249-9.17-4.45-2.4-2.2-3.6-4.696-3.6-7.49v-2.855c0-.223.14-.334.43-.334h10.12c.21 0 .32.111.32.334v2.855c0 1.335.69 2.497 2.06 3.486 1.37.989 2.97 1.483 4.81 1.483 1.92 0 3.52-.494 4.82-1.483 1.3-.989 1.95-2.089 1.95-3.301 0-1.582-1.45-2.929-4.33-4.041-.97-.396-2.5-.977-4.57-1.743-2.08-.767-4-1.471-5.77-2.114-3.46-1.335-5.98-3.04-7.57-5.117-1.59-2.077-2.38-4.4-2.38-6.971 0-2.843 1.2-5.315 3.6-7.417 2.4-2.101 5.4-3.522 9.01-4.264v-4.412c0-.198.16-.297.48-.297h9.63c.36 0 .54.099.54.297v4.486c3.54.742 6.47 2.176 8.8 4.302 2.32 2.126 3.49 4.561 3.49 7.305v5.08c0 .148-.11.222-.33.222h-10.17c-.22 0-.32-.074-.32-.222l-.11-5.08c0-1.459-.69-2.633-2.06-3.523-1.37-.89-2.94-1.335-4.71-1.335-1.84 0-3.41.482-4.7 1.446-1.3.964-1.95 2.102-1.95 3.412 0 1.26.4 2.336 1.22 3.226.81.89 2.28 1.767 4.41 2.633l9.19 3.485c3.03 1.113 5.42 2.503 7.17 4.172 1.75 1.668 2.63 3.764 2.63 6.285 0 2.892-1.15 5.389-3.44 7.49-2.29 2.102-5.26 3.56-8.9 4.376v4.487c0 .198-.18.297-.54.297Z" transform="rotate(.889 441303.271 -682255.734) scale(9.2356)"/><path fill="#201471" d="M1797.72 731.551c29.98 0 54.32 24.34 54.32 54.321 0 29.981-24.34 54.321-54.32 54.321s-54.32-24.34-54.32-54.321c0-29.981 24.34-54.321 54.32-54.321Zm0 13.58c22.48 0 40.74 18.255 40.74 40.741 0 22.485-18.26 40.741-40.74 40.741-22.49 0-40.74-18.256-40.74-40.741 0-22.486 18.25-40.741 40.74-40.741Z" transform="rotate(-48.567 4228.336 23077.22) scale(10.66044)"/><path fill="#201471" d="M1808.82 831.57c-4.28-7.274-21.42-7.274-25.7 0-4.29 7.273-4.29 36.365 0 43.638 4.28 7.274 21.42 7.274 25.7 0 4.28-7.273 4.28-36.365 0-43.638Z" transform="matrix(5.35607 -6.06832 7.9925 7.05442 -12770.277 7540.76)"/><g transform="matrix(8.72301 -9.88299 13.0362 11.50613 -22794.277 10881.41)"><path fill="#fbab17" d="M1808.82 831.57c-4.28-7.274-21.42-7.274-25.7 0-4.29 7.273-4.29 36.365 0 43.638 4.28 7.274 21.42 7.274 25.7 0 4.28-7.273 4.28-36.365 0-43.638Z"/><clipPath id="h"><path d="M1808.82 831.57c-4.28-7.274-21.42-7.274-25.7 0-4.29 7.273-4.29 36.365 0 43.638 4.28 7.274 21.42 7.274 25.7 0 4.28-7.273 4.28-36.365 0-43.638Z"/></clipPath><g clip-path="url(#h)"><path fill="#d68c04" d="M1650.28 817.885c-.61-.456-.17 1.512-.16 2.27 0 1.444.08 2.872.22 4.309.43 4.496 1.24 9.08 2.44 13.436 3.83 13.992 12.95 27.557 28.21 30.341 3.35.612 8.08.665 10.63-2.048 1.8-1.923-2.13-6.502 3.01-6.417.6.01 1.21.183 1.74.447 2.59 1.271 3.81 4.776 4.7 7.288 2.29 6.45 5.61 17.607 14.6 16.839 7.14-.61-.36-10.744 3.45-13.652 1.21-.92 2.75.271 3.64 1.057 1.51 1.324 4.73 7.412 7.29 6.556 1.25-.42.79-3.039.72-3.988-.27-3.519-.72-8.848 4.5-8.413 5.08.423 8.84 4.917 11.51 8.844 6.69 9.843 9.7 24.434 2.94 35.059-9.59 15.065-31.63 12.54-46.13 8.261a147.989 147.989 0 0 1-17.92-6.532c-4.78-2.109-9.43-4.566-13.93-7.22-20.12-11.876-53.04-40.692-21.46-86.437Z" transform="matrix(.4077 .35018 -.46191 .30908 1505.4 -8.056)"/></g></g><circle cx="1503.1" cy="828.968" r="40.963" fill="#20b7af" transform="matrix(6.8976 -.34284 .34284 6.8976 -6099.81 -3050.348)"/><circle cx="1503.1" cy="828.968" r="40.963" fill="#68e5de" transform="matrix(6.8976 -.34284 .34284 6.8976 -6014.31 -3058.64)"/><path fill="#fff" d="M1474.07 838.577c1.83 3.076 10.49 16.26 17.41 13.69 6.96-2.588 21.1-23.844 24.38-29.213.97-1.576-3.06-3.938-4.66-3.002-4.07 2.389-14.64 15.048-19.77 17.341-3.51 1.571-8.07-3.784-10.96-3.587-2.66.181-7.77 2.486-6.4 4.771Z" transform="matrix(7.71374 -.3834 .52519 10.56644 -7346.81 -6103.018)"/></svg>