<?xml version="1.0" encoding="iso-8859-1"?>
<!-- Generator: Adobe Illustrator 21.0.2, SVG Export Plug-In . SVG Version: 6.00 Build 0)  -->
<svg xmlns="http://www.w3.org/2000/svg" xmlns:xlink="http://www.w3.org/1999/xlink" version="1.1" id="Layer_1" x="0px" y="0px" viewBox="0 0 40 40" style="enable-background:new 0 0 40 40;" xml:space="preserve">
<g>
	<path style="fill:#B6DCFE;" d="M23,32.5c-8.547,0-15.5-6.953-15.5-15.5S14.453,1.5,23,1.5S38.5,8.453,38.5,17S31.547,32.5,23,32.5z   "/>
	<g>
		<path style="fill:#4788C7;" d="M23,2c8.271,0,15,6.729,15,15s-6.729,15-15,15S8,25.271,8,17S14.729,2,23,2 M23,1    C14.163,1,7,8.163,7,17s7.163,16,16,16s16-7.163,16-16S31.837,1,23,1L23,1z"/>
	</g>
</g>
<g>
	<path style="fill:#B6DCFE;" d="M20,35.5c-8.547,0-15.5-6.953-15.5-15.5S11.453,4.5,20,4.5S35.5,11.453,35.5,20S28.547,35.5,20,35.5   z"/>
	<g>
		<path style="fill:#4788C7;" d="M20,5c8.271,0,15,6.729,15,15s-6.729,15-15,15S5,28.271,5,20S11.729,5,20,5 M20,4    C11.163,4,4,11.163,4,20s7.163,16,16,16s16-7.163,16-16S28.837,4,20,4L20,4z"/>
	</g>
</g>
<g>
	<path style="fill:#B6DCFE;" d="M17,38.5C8.453,38.5,1.5,31.547,1.5,23S8.453,7.5,17,7.5S32.5,14.453,32.5,23S25.547,38.5,17,38.5z"/>
	<g>
		<path style="fill:#4788C7;" d="M17,8c8.271,0,15,6.729,15,15s-6.729,15-15,15S2,31.271,2,23S8.729,8,17,8 M17,7    C8.163,7,1,14.163,1,23s7.163,16,16,16s16-7.163,16-16S25.837,7,17,7L17,7z"/>
	</g>
</g>
<g>
	<circle style="fill:#DFF0FE;" cx="17" cy="23" r="12"/>
</g>
<path style="fill:#4788C7;" d="M21.913,25.722c0-4.559-7.165-4.211-7.165-6.774c0-0.826,0.741-1.539,2.264-1.539  c1.725,0,2.967,0.489,3.932,1.074v-2.788c-0.701-0.39-1.758-0.62-3.161-0.695v-2H16.13v2.043c-1.234,0.131-2.231,0.569-2.984,1.318  C12.383,17.122,12,18.043,12,19.123c0,4.271,7.168,4.403,7.168,6.743c0,0.833-1.044,1.477-2.208,1.477  c-2.895,0-4.561-1.009-4.96-1.332v2.86c1.19,0.619,2.746,0.933,4.13,0.947V32h0.052h1.508h0.092v-2.257  c1.309-0.161,2.324-0.577,3.037-1.259C21.548,27.786,21.913,26.864,21.913,25.722z"/>
</svg>
