<svg class="svg-icon" style="width: 1em; height: 1em;vertical-align: middle;fill: currentColor;overflow: hidden;" viewBox="0 0 1024 1024" version="1.1" xmlns="http://www.w3.org/2000/svg"><path d="M244.7 715.3H285c7 78.5 30.1 100.8 39.8 102.4h-40.3c-9.7-1.6-32.8-23.9-39.8-102.4z" fill="#9DD6EA" /><path d="M234.6 664.2h142.6-35.9z" fill="#231815" /><path d="M361.9 203.8h40.3v460.4h-40.3z" fill="#9DD6EA" /><path d="M376.8 664.2h284.7-36z" fill="#231815" /><path d="M640.3 664.2h40.3v153.5h-40.3z" fill="#66C5E7" /><path d="M682.1 819.1h-43.3V662.7h43.3v156.4z m-40.3-3h37.3V665.7h-37.3v150.4z" fill="#323333" /><path d="M759.7 766.5H800c0 5.1 0 102.3-119.3 102.3h-40.3c119.3 0 119.3-97.2 119.3-102.3z" fill="#66C5E7" /><path d="M680.6 870.3h-40.3v-3c114.5 0 117.8-90.5 117.8-100.8V765h43.3v1.5c0 10.6-3.4 103.8-120.8 103.8z m-6.2-3h6.3c110.2 0 117.4-83.8 117.8-99.3h-37.3c-0.4 14.1-6.2 83.9-86.8 99.3z" fill="#323333" /><path d="M322.2 152.6h437.5v613.9c0 5.1 0 102.3-119.3 102.3h-358c-1.6 0-79.5-1-79.5-204.6h119.3V152.6z m397.7 613.9V203.8H362v460.4h278.4v153.5c79.5-0.1 79.5-50.7 79.5-51.2m-119.3 51.1V715.3H244.8c7 78.5 30.1 100.8 39.8 102.4l316-0.1" fill="#66C5E7" /><path d="M640.4 870.3h-358c-0.9 0-21.5-0.3-41.6-26.5-26.2-34.2-39.5-94.6-39.5-179.6v-1.5h119.3V151.1h440.5v615.4c0.1 10.6-3.3 103.8-120.7 103.8z m-436-204.6c0.1 57.8 7 134.7 38.9 176.3 19.2 25.1 38.4 25.4 39.2 25.4h358c114.5 0 117.8-90.5 117.8-100.8V154.1H323.7v511.6H204.4z m80.1 153.5h-0.2c-11.2-1.8-34.1-25.9-41.1-103.8l-0.1-1.6h359v105.3h-1.5l-316.1 0.1z m-38.1-102.4c3.1 32.9 9.5 59.8 18.6 77.9 7.4 14.6 15.2 20.7 19.7 21.5l314.4-0.1v-99.3H246.4z m393.9 102.3h-1.5V665.7H360.4V202.3h360.9v564.2c0 0.6-0.1 13.7-10.3 26.7-16.7 21.4-47.6 25.9-70.7 25.9zM363.4 662.7h278.4v153.5c31.3-0.3 54.4-8.8 66.9-24.8 9.5-12.2 9.6-24.3 9.6-24.8V205.3H363.4v457.4z" fill="#323333" /><path d="M759.7 152.6H800v613.9h-40.3z" fill="#66C5E7" /><path d="M801.4 768h-43.3V151.1h43.3V768z m-40.2-3h37.3V154.1h-37.3V765z" fill="#323333" /><path d="M341.3 152.6H768.1h-35.9z" fill="#231815" /><path d="M439 286.8h212.7V338H439z" fill="#E4D69D" /><path d="M651.7 286.8h30.8V338h-30.8z" fill="#F7C175" /><path d="M439 400.9h212.7v51.2H439z" fill="#E4D69D" /><path d="M651.7 400.9h30.8v51.2h-30.8z" fill="#F7C175" /><path d="M439 515h212.7v51.2H439z" fill="#E4D69D" /><path d="M651.7 515h30.8v51.2h-30.8z" fill="#F7C175" /><path d="M421.4 286.8h262.7-33.2z" fill="#231815" /></svg>