<?xml version="1.0" encoding="iso-8859-1"?>
<!-- Uploaded to: SVG Repo, www.svgrepo.com, Generator: SVG Repo Mixer Tools -->
<svg height="800px" width="800px" version="1.1" id="Layer_1" xmlns="http://www.w3.org/2000/svg" xmlns:xlink="http://www.w3.org/1999/xlink" 
	 viewBox="0 0 500 500" xml:space="preserve">
<path style="fill:#61C2AB;" d="M474,275.2c0-14.4-11.6-25.2-26.8-25.2h-248c-15.6,0-28.8,10.8-28.8,25.2v87.2
	c0,14.4,13.6,27.2,28.8,27.2h248c15.6,0,26.8-12.8,26.8-27.2V275.2L474,275.2z"/>
<path style="fill:#AEB1B4;" d="M358.8,350.8c-1.6-10.8-16.8-14-28.8-15.6V326c4-4.8,8.8-14.8,8.8-24.8c0-17.2-8.4-21.6-19.2-21.6
	s-20.4,4.4-20.4,21.6c0,10,3.2,20,7.2,24.8v9.6c-12,1.6-28,4.8-28,16.4l0,0c4,7.6,10.8,18,10.8,18c8,10.4,18.8,16.8,30.4,16.8
	c16.8,0,31.6-14,39.6-34.8L358.8,350.8z"/>
<path style="fill:#54B265;" d="M142,222v196h356V222H142z M474,329.6v30.8c-16,0-28.4,13.6-28.4,29.6h-130h-38.8h-82.4
	c0-16-16.4-29.6-24.4-29.6v-85.2c8,0,24.4-9.2,24.4-25.2h251.2c0,16,12.4,25.2,28.4,25.2v28L474,329.6L474,329.6z"/>
<path style="fill:#61C2AB;" d="M406,207.2c0-14.4-11.6-25.2-26.8-25.2h-248c-15.6,0-28.8,10.8-28.8,25.2v87.2
	c0,14.4,13.6,27.2,28.8,27.2h248c15.6,0,26.8-12.8,26.8-27.2V207.2L406,207.2z"/>
<path style="fill:#AEB1B4;" d="M291.6,283.2c-1.6-10.8-17.6-14-29.6-15.6V258c4-4.8,9.6-14.8,9.6-24.8c0-17.2-8-21.6-18.8-21.6
	S232,216,232,233.2c0,10,2.4,20,6.4,24.8v9.6c-12,1.6-28,4.8-28,16.4l0,0c4,7.6,11.6,18,11.6,18c8,10.4,19.2,16.8,30.8,16.8
	c16.8,0,31.6-14,39.6-34.8L291.6,283.2z"/>
<path style="fill:#54B265;" d="M74,154v196h360V154H74z M406,294c-16,0-26.8,12-26.8,28h-248c-10-12-16.8-28-28.8-28v-86
	c20,0,28.8-14,28.8-26h248c0,16,18.8,26,26.8,26V294L406,294z"/>
<path style="fill:#F4EFEF;" d="M145.2,212.4c-3.2-10-5.6-20.8-5.6-32.8c0-38,20.4-68.8,45.6-68.8c25.2,0,45.6,30.8,45.6,68.8
	s-20.4,68.8-45.6,68.8c-11.2,0-22-6.4-30-16.8C155.6,231.6,147.6,219.6,145.2,212.4z"/>
<path style="fill:#54B265;" d="M6,86v192h356V86H6z"/>
<path style="fill:#61C2AB;" d="M299.6,110c-13.6,0-208,0-238,0S30,120,30,138.4s0,65.2,0,80.8c0,15.6,2.8,30.8,28.8,30.8
	s225.6,0,244.4,0s30.8-21.2,30.8-35.2s0-55.6,0-70.8C334,128.8,312.8,110,299.6,110z"/>
<g>
	<circle style="fill:#E8E3E3;" cx="82.4" cy="179.2" r="15.2"/>
	<circle style="fill:#E8E3E3;" cx="284.8" cy="179.2" r="15.2"/>
</g>
<path style="fill:#AEB1B4;" d="M219.6,212.4c-1.6-10.8-17.6-14-29.6-15.6v-9.6c4-4.8,9.6-14.8,9.6-24.8c0-17.2-8-21.6-18.8-21.6
	s-19.2,4.4-19.2,21.6c0,10,4.4,20,8.4,24.8v9.6c-12,1.6-28,4.8-28,16.4l0,0c4,7.6,9.6,18,9.6,18c8,10.4,18.4,16.8,29.6,16.8
	c16.8,0,31.2-14,38.8-34.8L219.6,212.4z"/>
<path d="M360,284H4c-2.4,0-4-1.6-4-4V84c0-2.4,1.6-4,4-4h356c2.4,0,4,1.6,4,4v196C364,282.4,362.4,284,360,284z M8,276h348V88H8V276
	z"/>
<path d="M305.2,256H58.8C42,256,28,242.4,28,225.2v-86.4C28,122,41.6,108,58.8,108h246.4c16.8,0,30.8,13.6,30.8,30.8v86.4
	C336,242.4,322.4,256,305.2,256z M58.8,116C46.4,116,36,126,36,138.8v86.4c0,12.4,10,22.8,22.8,22.8h246.4c12.4,0,22.8-10,22.8-22.8
	v-86.4c0-12.4-10-22.8-22.8-22.8H58.8z"/>
<path d="M182,250.8c-27.6,0-50-32.8-50-72.8c0-39.2,21.6-68.8,50-68.8c10.4,0,23.2,1.6,33.2,14.4c1.2,1.6,1.2,4.4-0.8,5.6
	c-1.6,1.2-4.4,1.2-5.6-0.8c-6-8-14-11.2-26.8-11.2c-24,0-42,26.4-42,60.8c0,36,18.8,64.8,42,64.8s42-29.2,42-64.8
	c0-10.8-2-22-5.2-31.2c-0.8-2,0.4-4.4,2.4-5.2c2-0.8,4.4,0.4,5.2,2.4c3.6,10.4,5.6,22.4,5.6,34C232,218.4,209.6,250.8,182,250.8z"/>
<path d="M82.8,199.6c-12,0-21.6-9.6-21.6-21.6s9.6-22,21.6-22c2.4,0,4,1.6,4,4s-1.6,4-4,4c-7.6,0-13.6,6-13.6,14
	c0,7.6,6,13.6,13.6,13.6s14-6,14-13.6c0-2.4,1.6-4,4-4s4,1.6,4,4C104.8,189.6,94.8,199.6,82.8,199.6z"/>
<path d="M220,218c-2.4,0-4-1.6-4-4c0-9.6-15.6-13.2-24.8-14.4c-2-0.4-3.6-2-3.6-4V186c0-0.8,0.4-2,0.8-2.4c3.2-4,8-12.8,8-22
	c0-14.8-6-18-15.2-18c-11.6,0-16.8,5.6-16.8,18c0,10,3.2,18.4,6,22c0.8,0.8,0.8,1.6,0.8,2.4v9.6c0,2-1.6,3.6-3.6,4
	c-13.2,1.6-20.4,5.2-22.4,11.2c-0.8,2-2.8,3.2-5.2,2.4c-2-0.8-3.2-2.8-2.4-5.2c2.8-8.8,11.2-14,25.6-16.4v-4.8c-4-6-6.8-16-6.8-26
	c0-16.8,8.4-26,24.8-26c15.6,0,23.2,8.8,23.2,26c0,10-4.4,20-8.8,26v4.8c23.2,4,28,14,28,22C224,216,222.4,218,220,218z"/>
<path d="M281.6,199.6c-12,0-21.6-9.6-21.6-21.6s9.6-22,21.6-22c2.4,0,4,1.6,4,4s-1.6,4-4,4c-7.6,0-13.6,6-13.6,14
	c0,7.6,6,13.6,13.6,13.6s14-6,14-13.6c0-2.4,1.6-4,4-4s4,1.6,4,4C303.2,189.6,293.6,199.6,281.6,199.6z"/>
<path d="M432,352H72c-2.4,0-4-1.6-4-4v-66c0-2.4,1.6-4,4-4s4,1.6,4,4v62h352V160h-66c-2.4,0-4-1.6-4-4s1.6-4,4-4h70c2.4,0,4,1.6,4,4
	v192C436,350.4,434.4,352,432,352z"/>
<path d="M380,328H128c-2.4,0-4-1.6-4-4c0-13.6-14-28-23.6-28c-2.4,0-4-1.6-4-4v-10c0-2.4,1.6-4,4-4s4,1.6,4,4v6.4
	c12,2.8,25.6,16.4,27.6,31.6h244.4c1.2-15.2,9.2-29.6,24-32v-78c-14.8-1.2-22.8-8.4-24-22.4h-14c-2.4,0-4-1.6-4-4s1.6-4,4-4h18
	c2.4,0,4,1.6,4,4c0,13.2,5.6,18.4,20,18.4c2.4,0,4,1.6,4,4v85.6c0,2.4-1.6,4-4,4c-13.2,0-20,14-20,28C384,326.4,382,328,380,328z"/>
<path d="M253.6,322c-21.2,0-38-14.4-45.6-39.2c-0.8-2,0.4-4.4,2.8-4.8c2-0.8,4.4,0.4,4.8,2.8C222,302,236,314,253.6,314
	s31.2-12,37.6-33.2c0.8-2,2.8-3.2,5.2-2.8c2,0.8,3.2,2.8,2.8,5.2C291.6,307.6,274.4,322,253.6,322z"/>
<path d="M496,420H140c-2.4,0-4-1.6-4-4v-66c0-2.4,1.6-4,4-4s4,1.6,4,4v62h348V228h-58c-2.4,0-4-1.6-4-4s1.6-4,4-4h62
	c2.4,0,4,1.6,4,4v192C500,418.4,498.4,420,496,420z"/>
<path d="M447.2,392h-252c-2.4,0-4-1.6-4-4c0-14.4-14-24.8-23.2-24.8c-2.4,0-4-1.6-4-4V350c0-2.4,1.6-4,4-4s4,1.6,4,4v5.6
	c12,2,24.8,14,26.8,28.4h244.4c1.2-16,10.8-26.8,24.8-28.4V278c-15.2-1.2-23.2-8-24.4-21.6H434c-2.4,0-4-1.6-4-4s1.6-4,4-4h13.2
	c2.4,0,4,1.6,4,4c0,12.8,6,17.6,20.8,17.6c2.4,0,4,1.6,4,4v85.2c0,2.4-1.6,4-4,4c-15.2,0-20.8,13.2-20.8,24.8
	C451.2,390.4,449.6,392,447.2,392z"/>
<path d="M320.8,389.6c-18.4,0-35.2-14.8-44-38.4c-0.8-2,0.4-4.4,2.4-5.2c2-0.8,4.4,0.4,5.2,2.4c7.6,20.4,21.6,33.2,36.4,33.2
	c14.8,0,28.8-12.4,36.4-32.8c0.8-2,3.2-3.2,5.2-2.4c2,0.8,3.2,3.2,2.4,5.2C356,374.8,339.2,389.6,320.8,389.6z"/>
</svg>