<svg class="svg-icon" style="width: 1.1123046875em;height: 1em;vertical-align: middle;fill: currentColor;overflow: hidden;" viewBox="0 0 1139 1024" version="1.1" xmlns="http://www.w3.org/2000/svg"><path d="M498.758313 955.497701l80.817319 50.799458c33.096616 20.781596 76.968875 11.545331 98.520161-22.320974l328.657098-518.000532c19.242219-30.017861 24.63004-66.962922 15.393775-101.598916l-43.872259-158.555883-65.423544-6.927199" fill="#3973F4" /><path d="M322.499588 836.195944l105.44736 98.52016c28.478484 26.939106 73.89012 25.399729 100.829227-3.078755l419.480371-447.958855c24.63004-26.169418 36.94506-61.5751 33.866305-96.980783l-14.624086-180.876857-76.199187-6.15751" fill="#4988FD" /><path d="M955.183745 205.820854l-36.175372 208.585652c-6.15751 35.405683-26.939106 66.193233-56.956968 85.435452l-518.77022 327.88741c-33.096616 20.781596-76.968875 10.775643-98.520161-22.320974L17.702841 445.963745C-3.078755 412.867129 6.927199 368.225181 40.023815 347.443584L558.794036 19.556175C588.811897 0.313956 625.756958-5.073865 660.392952 4.932089l211.664407 58.496345c43.10257 11.545331 73.89012 46.181325 83.896075 86.974829" fill="#6097FD" /><path d="M231.676315 785.396486l-10.775642-6.927199c-22.320974-13.854398-33.866305-38.484438-33.096617-62.344789" fill="#4988FD" /><path d="M889.760201 205.820854c-4.618133 7.696888-10.775643 14.624086-19.242219 20.011907-26.939106 16.933153-62.344789 9.236265-79.277942-17.702841-16.933153-26.939106-9.236265-62.344789 17.702841-79.277942 26.939106-16.933153 62.344789-9.236265 79.277942 17.702841 0.769689 1.539378 1.539378 2.309066 2.309066 3.848444" fill="#3973F4" /><path d="M220.130984 526.011376c-13.084709-21.551285-6.15751-54.647902 24.63004-73.890121 13.854398-9.236265 26.939106-12.31502 36.94506-13.084709 11.545331-0.769689 20.781596 10.005954 18.47253 21.551285v0.769689c-1.539378 7.696888-8.466576 13.854398-16.163463 14.624087-4.618133 0-10.775643 1.539378-16.163464 4.618132-8.466576 5.387821-10.775643 14.624086-6.927199 20.781596 11.545331 18.47253 68.502299-30.78755 98.520161 16.163464 15.393775 23.860351 7.696888 56.956968-26.169418 78.508253-17.702841 11.545331-35.405683 13.854398-48.490392 13.854398-10.775643 0-19.242219-10.775643-16.933152-21.551285v-0.769689c1.539378-8.466576 9.236265-14.624086 17.702841-13.854398 6.927199 0 15.393775-0.769689 23.860351-6.15751 10.775643-6.927199 13.084709-17.702841 8.466577-25.399729-10.775643-18.47253-67.73261 30.78755-97.750472-16.163463zM421.789438 494.454137l4.618132 20.011907c2.309066 9.236265-1.539378 18.47253-9.236265 23.090663-13.084709 7.696888-30.017861 0.769689-33.096616-13.854398l-23.090663-113.144247c-3.078755-13.854398 3.078755-28.478484 15.393775-36.175371s27.708795-6.927199 39.254127 1.539377l92.36265 70.041677c12.31502 9.236265 11.545331 27.708795-1.539377 35.405683-7.696888 4.618133-17.702841 4.618133-25.399729-1.539378l-16.163464-13.084709-43.10257 27.708796z m-20.781597-83.126386l12.31502 47.720703 25.399729-16.163464-37.714749-31.557239zM549.557771 454.430321l-75.429498-120.071445c-5.387821-8.466576-3.078755-20.011908 5.387821-25.399729l6.15751-3.848444c8.466576-5.387821 20.011908-3.078755 25.399729 5.387821l54.647902 86.97483 44.641948-28.478484c8.466576-5.387821 20.011908-3.078755 25.399729 5.387821l1.539377 2.309066c5.387821 8.466576 3.078755 20.011908-5.387821 25.399729L549.557771 454.430321zM761.991867 298.183504c5.387821 8.466576 3.078755 20.011908-5.387821 25.399729l-90.823273 57.726657-85.435452-135.465221L669.629217 189.65739c8.466576-5.387821 20.011908-3.078755 25.399729 5.387821 5.387821 8.466576 3.078755 20.011908-5.387822 25.399729l-52.338835 33.096616 13.084709 21.551286 37.714749-23.860352c7.696888-5.387821 18.47253-2.309066 23.860351 5.387821 5.387821 7.696888 2.309066 18.47253-5.387821 23.860352l-37.714749 23.860351 14.624086 23.090663 53.878213-33.866305c8.466576-6.15751 19.242219-3.848444 24.63004 4.618132z" fill="#FFFFFF" /><path d="M1106.812429 205.820854H846.65763c-15.393775 0-27.708795-12.31502-27.708795-27.708796s12.31502-27.708795 27.708795-27.708795h260.154799c15.393775 0 27.708795 12.31502 27.708796 27.708795s-12.31502 27.708795-27.708796 27.708796z" fill="#21D3AC" /></svg>